<?xml version="1.0" standalone="no"?>
<!DOCTYPE svg PUBLIC "-//W3C//DTD SVG 20010904//EN"
 "http://www.w3.org/TR/2001/REC-SVG-20010904/DTD/svg10.dtd">
<svg version="1.0" xmlns="http://www.w3.org/2000/svg"
 width="512.000000pt" height="512.000000pt" viewBox="0 0 512.000000 512.000000"
 preserveAspectRatio="xMidYMid meet">
<metadata>
Created by potrace 1.14, written by Peter Selinger 2001-2017
</metadata>
<g transform="translate(0.000000,512.000000) scale(0.100000,-0.100000)"
fill="#000000" stroke="none">
<path d="M0 2560 l0 -2560 2560 0 2560 0 0 2560 0 2560 -2560 0 -2560 0 0
-2560z m4108 1450 c27 -74 96 -247 152 -385 57 -137 108 -277 114 -310 10 -48
16 -60 34 -65 18 -4 47 -59 153 -290 l130 -285 -5 -122 -6 -122 -105 -216
c-57 -118 -113 -227 -124 -241 -12 -15 -21 -40 -21 -57 0 -16 -27 -86 -59
-156 -81 -171 -286 -663 -314 -750 l-22 -71 -202 0 -201 0 -7 78 c-5 63 -19
110 -80 267 -53 137 -72 198 -68 218 4 22 2 27 -14 27 -16 0 -35 32 -90 148
-39 81 -101 219 -138 307 -37 88 -93 216 -125 285 l-58 125 -4 138 c-4 126 -3
139 14 151 11 8 69 135 133 292 99 239 120 283 150 307 28 23 33 33 29 56 -4
20 26 105 116 327 66 164 129 334 139 377 10 42 20 79 22 81 3 3 395 23 406
21 1 -1 24 -61 51 -135z m-3126 -60 c98 -134 133 -190 149 -240 18 -55 33 -77
99 -145 53 -55 94 -110 130 -175 29 -52 134 -202 234 -333 99 -132 187 -248
195 -258 9 -13 15 -65 19 -172 l5 -152 -55 -90 c-30 -49 -146 -229 -258 -400
-141 -216 -224 -354 -273 -455 -57 -116 -201 -359 -341 -572 l-17 -26 -67 18
c-37 10 -132 28 -211 39 -80 12 -146 22 -147 24 -2 1 1 146 7 322 23 763 25
897 12 982 -20 125 -14 1185 7 1230 13 29 12 34 -5 53 -17 18 -20 47 -29 210
-5 105 -7 192 -4 195 9 9 392 124 408 122 8 -1 72 -81 142 -177z m1543 -1131
c33 -39 62 -75 64 -81 2 -6 20 -25 40 -42 120 -103 141 -128 141 -166 0 -32
-10 -47 -76 -118 -42 -45 -82 -82 -90 -82 -8 0 -14 -8 -14 -17 -1 -10 -29 -48
-65 -85 -47 -49 -73 -69 -99 -73 -31 -6 -38 -3 -72 35 -59 65 -93 113 -94 131
0 9 -40 47 -90 85 -74 57 -91 75 -96 102 -6 32 -2 39 62 103 38 38 77 72 86
75 10 3 24 20 32 37 7 18 39 58 70 90 31 33 56 63 56 68 0 5 19 9 43 9 40 0
45 -4 102 -71z"/>
<path d="M3744 3348 c-95 -251 -114 -295 -136 -306 -24 -11 -25 -15 -16 -45 9
-29 2 -53 -62 -221 l-72 -188 27 -76 c15 -42 38 -112 52 -155 25 -76 25 -78 7
-98 -19 -21 -18 -21 19 -51 52 -42 103 -148 217 -448 51 -135 96 -248 99 -252
4 -4 35 85 69 199 41 136 70 215 84 231 16 16 22 33 19 57 -2 25 26 105 104
296 l106 261 -32 96 c-17 53 -74 207 -126 342 -91 236 -94 246 -79 272 16 25
15 27 -17 46 -30 17 -40 36 -86 158 -28 77 -55 147 -59 157 -5 13 -41 -71
-118 -275z"/>
<path d="M841 3225 l2 -290 -27 -74 c-14 -41 -26 -84 -26 -96 0 -12 14 -59 31
-106 l31 -84 -11 -499 c-6 -275 -9 -501 -7 -503 2 -2 39 53 81 123 55 90 88
132 112 147 30 17 33 22 20 34 -12 12 0 40 83 201 53 103 140 258 193 345 53
87 97 161 97 163 0 2 -16 28 -35 57 -19 29 -39 73 -43 99 -7 37 -19 56 -60 95
-35 34 -102 131 -223 328 -95 154 -183 296 -196 315 l-24 35 2 -290z"/>
</g>
</svg>
